<?xml version="1.0" ?><svg style="enable-background:new 0 0 512 512;" version="1.1" viewBox="0 0 512 512" xml:space="preserve" xmlns="http://www.w3.org/2000/svg" xmlns:xlink="http://www.w3.org/1999/xlink"><style type="text/css">
	.st0{fill:#EA4157;}
	.st1{fill:url(#SVGID_1_);}
	.st2{opacity:0.5;fill:#EA4157;}
	.st3{fill:#FFFFFF;}
</style><g id="Edges"/><g id="Background_Bottom"><g><path class="st0" d="M492.3,443.1c0,34.2-27.7,61.9-61.9,61.9H80.7c-34.2,0-61.9-27.7-61.9-61.9V93.4c0-34.2,27.7-61.9,61.9-61.9    h349.7c34.2,0,61.9,27.7,61.9,61.9V443.1z"/></g></g><g id="Background"><radialGradient cx="62.8233" cy="1010.2239" gradientTransform="matrix(0.9986 -5.233596e-02 -4.448556e-02 -0.8488 45.0265 1332.4493)" gradientUnits="userSpaceOnUse" id="SVGID_1_" r="684.5226"><stop offset="0" style="stop-color:#FED576"/><stop offset="0.2634" style="stop-color:#F47133"/><stop offset="0.6091" style="stop-color:#BC3081"/><stop offset="1" style="stop-color:#4C63D2"/></radialGradient><path class="st1" d="M431,480.3H81.3c-34.2,0-61.9-27.7-61.9-61.9V68.6c0-34.2,27.7-61.9,61.9-61.9H431c34.2,0,61.9,27.7,61.9,61.9   v349.7C492.9,452.6,465.2,480.3,431,480.3z"/></g><g id="Shadow"><path class="st2" d="M376.4,140.2C376.4,140.3,376.4,140.3,376.4,140.2c-0.7-0.7-1.4-1.4-2.1-2.1c-7.9-7.9-15.8-12.8-25.2-16.4   c-9-3.5-19.4-5.9-34.5-6.6c-15.2-0.7-20-0.9-58.6-0.9c-38.6,0-43.4,0.2-58.6,0.9c-15.1,0.7-25.4,3.1-34.5,6.6   c-9.3,3.6-17.3,8.5-25.2,16.4c-7.9,7.9-12.8,15.8-16.4,25.2c-3.5,9-5.9,19.4-6.6,34.5c-0.7,15.2-0.9,20-0.9,58.6   c0,38.6,0.2,43.4,0.9,58.6c0.7,15.1,3.1,25.4,6.6,34.5c3.6,9.3,8.5,17.3,16.4,25.2c1.7,1.7,3.3,3.2,5,4.6l101.2,101.2h114l72.3-0.1   c34.2,0,61.9-27.7,61.9-61.9l0-112.3v-49.9L376.4,140.2z"/></g><g id="Symbol"><g><path class="st3" d="M256.1,139.9c37.9,0,42.4,0.1,57.4,0.8c13.8,0.6,21.4,2.9,26.4,4.9c6.6,2.6,11.4,5.7,16.3,10.6    c5,5,8,9.7,10.6,16.3c1.9,5,4.3,12.5,4.9,26.4c0.7,15,0.8,19.5,0.8,57.4s-0.1,42.4-0.8,57.4c-0.6,13.8-2.9,21.4-4.9,26.4    c-2.6,6.6-5.7,11.4-10.6,16.3c-5,5-9.7,8-16.3,10.6c-5,1.9-12.5,4.3-26.4,4.9c-15,0.7-19.5,0.8-57.4,0.8s-42.4-0.1-57.4-0.8    c-13.8-0.6-21.4-2.9-26.4-4.9c-6.6-2.6-11.4-5.7-16.3-10.6c-5-5-8-9.7-10.6-16.3c-1.9-5-4.3-12.5-4.9-26.4    c-0.7-15-0.8-19.5-0.8-57.4s0.1-42.4,0.8-57.4c0.6-13.8,2.9-21.4,4.9-26.4c2.6-6.6,5.7-11.4,10.6-16.3c5-5,9.7-8,16.3-10.6    c5-1.9,12.5-4.3,26.4-4.9C213.7,140,218.2,139.9,256.1,139.9 M256.1,114.3c-38.6,0-43.4,0.2-58.6,0.9c-15.1,0.7-25.4,3.1-34.5,6.6    c-9.3,3.6-17.3,8.5-25.2,16.4c-7.9,7.9-12.8,15.8-16.4,25.2c-3.5,9-5.9,19.4-6.6,34.5c-0.7,15.2-0.9,20-0.9,58.6    c0,38.6,0.2,43.4,0.9,58.6c0.7,15.1,3.1,25.4,6.6,34.5c3.6,9.3,8.5,17.3,16.4,25.2c7.9,7.9,15.8,12.8,25.2,16.4    c9,3.5,19.4,5.9,34.5,6.6c15.2,0.7,20,0.9,58.6,0.9s43.4-0.2,58.6-0.9c15.1-0.7,25.4-3.1,34.5-6.6c9.3-3.6,17.3-8.5,25.2-16.4    c7.9-7.9,12.8-15.8,16.4-25.2c3.5-9,5.9-19.4,6.6-34.5c0.7-15.2,0.9-20,0.9-58.6s-0.2-43.4-0.9-58.6c-0.7-15.1-3.1-25.4-6.6-34.5    c-3.6-9.3-8.5-17.3-16.4-25.2c-7.9-7.9-15.8-12.8-25.2-16.4c-9-3.5-19.4-5.9-34.5-6.6C299.5,114.5,294.7,114.3,256.1,114.3    L256.1,114.3z"/><path class="st3" d="M256.1,183.4c-40.3,0-72.9,32.7-72.9,72.9s32.7,72.9,72.9,72.9s72.9-32.7,72.9-72.9S296.4,183.4,256.1,183.4z     M256.1,303.7c-26.2,0-47.3-21.2-47.3-47.3S230,209,256.1,209s47.3,21.2,47.3,47.3S282.3,303.7,256.1,303.7z"/><circle class="st3" cx="332" cy="180.5" r="17"/></g></g></svg>