<svg width="35" height="48" viewBox="0 0 35 48" fill="none" xmlns="http://www.w3.org/2000/svg">
<g id="Group 110">
<g id="ASWF logo">
<path id="Vector" d="M20.2365 11.7188L19.7891 12.1662L20.3021 12.4617L20.2365 11.7188Z" fill="#DFDCDD"/>
<path id="Vector_2" d="M17.1858 10.6721H17.2391V10.3848L19.9071 7.72087L19.8292 6.8712L17.2391 9.46535V9.05488L19.8004 6.49768L19.7019 5.66443L17.2391 8.15186V7.74139L19.7019 5.2786L19.628 4.42893L17.2391 6.83426V6.4238L19.5665 4.10466L19.4926 3.28373L17.2391 5.51667V5.15546L19.4844 2.91021L19.3858 2.05233L17.2391 4.23191V3.82144L19.3776 1.68291L19.2914 0.820932L17.2391 2.87326L17.2063 2.51205L18.5157 1.19035C18.9672 1.06721 19.2627 0.882502 19.2627 0.677269C19.2627 0.303745 18.331 0 17.1858 0C16.0406 0 15.1088 0.303745 15.1088 0.677269L14.0703 12.4618L16.2088 11.2304L17.1858 10.6721Z" fill="#DFDCDD"/>
<path id="Vector_3" d="M18.7262 11.5502L20.1013 10.1752L20.0274 9.30908L18.127 11.2013L18.1639 11.2219L18.7262 11.5502Z" fill="#DFDCDD"/>
<path id="Vector_4" d="M20.2023 11.3533L20.1325 10.52L18.9668 11.6898L19.5373 12.0182L20.2023 11.3533Z" fill="#DFDCDD"/>
<path id="Vector_5" d="M19.9899 8.93609L19.916 8.08643L17.2891 10.7175L17.8719 11.0541L19.9899 8.93609Z" fill="#DFDCDD"/>
<path id="Vector_6" d="M30.0995 17.8882L29.9435 18.0442L30.1241 18.1468L30.0995 17.8882Z" fill="#DFDCDD"/>
<path id="Vector_7" d="M30.0754 17.6211L30.022 16.9849L29.3242 17.6868L29.7593 17.9371L30.0754 17.6211Z" fill="#DFDCDD"/>
<path id="Vector_8" d="M29.9184 15.8112L29.8609 15.1914L28.0918 16.9728L28.5146 17.215L29.9184 15.8112Z" fill="#DFDCDD"/>
<path id="Vector_9" d="M29.9963 16.7141L29.9388 16.082L28.6992 17.3257L29.1343 17.5761L29.9963 16.7141Z" fill="#DFDCDD"/>
<path id="Vector_10" d="M29.8412 14.9329L29.7837 14.2884L27.6904 16.3695V16.074L29.7427 14.0216L29.6852 13.3895L27.6739 15.4049V15.1094L29.6647 13.1186L29.6072 12.4865L27.6739 14.4198V14.1243L29.5826 12.2156L29.5539 11.5671L27.6904 13.4224V13.135L29.521 11.3044L29.4636 10.6722L27.6904 12.4372V12.1458L29.4431 10.3931L29.3856 9.76921L27.6904 11.4562V11.1853L29.3651 9.51061L29.3076 8.86618L27.6904 10.508V10.2166L29.283 8.6199L29.2255 7.96726L27.6904 9.50241L27.6657 9.2315L28.6591 8.24227C28.9956 8.14787 29.2132 8.01241 29.2132 7.85644C29.2132 7.57732 28.5195 7.35156 27.6657 7.35156C26.812 7.35156 26.1183 7.57732 26.1183 7.85644L25.4492 15.4419L27.912 16.8662L29.8412 14.9329Z" fill="#DFDCDD"/>
<path id="Vector_11" d="M8.88181 14.9325L8.82435 14.2881L6.73097 16.3691V16.0736L8.7833 14.0213L8.72994 13.3891L6.73097 15.3881V15.0926L8.72173 13.1018L8.66427 12.4697L6.73097 14.403V14.1075L8.64374 12.1988L8.58628 11.5667L6.73097 13.422V13.1347L8.56165 11.304L8.50829 10.6719L6.73097 12.4369V12.1454L8.48366 10.3927L8.4303 9.76883L6.73097 11.4558V11.1849L8.40567 9.51023L8.34821 8.8658L6.73097 10.5077V10.2162L8.32768 8.61952L8.27022 7.96688L6.73097 9.48971L6.70634 9.2188L7.69967 8.22958C8.03625 8.13517 8.2538 7.99972 8.2538 7.84374C8.2538 7.56462 7.56422 7.33887 6.70634 7.33887C5.84847 7.33887 5.15889 7.56462 5.15889 7.84374L4.25586 18.1464L7.61347 16.2008L8.88181 14.9325Z" fill="#DFDCDD"/>
<path id="Vector_12" d="M8.90671 15.1914L8.29102 15.8112L8.92724 15.4418L8.90671 15.1914Z" fill="#DFDCDD"/>
<path id="Vector_13" d="M0 22.863V38.0502L17.1862 47.9999V12.9092L0 22.863Z" fill="#A1A1A3"/>
<path id="Vector_14" d="M34.2979 22.8178L17.1855 12.9092V47.9958L34.3677 38.0461L34.2979 22.8178Z" fill="#F4F3F2"/>
<path id="Vector_15" d="M20.9746 36.437V34.4585L27.891 30.4524L20.9746 26.4503V24.4678L31.3143 30.4524L20.9746 36.437Z" fill="#221F20"/>
<path id="Vector_16" d="M13.3728 26.4503L6.45649 30.4524L13.3728 34.4585V36.437L3.0332 30.4524L13.3728 24.4678V26.4503Z" fill="#221F20"/>
</g>
</g>
</svg>
